<?xml version="1.0" encoding="UTF-8"?>
<svg id="Layer_2" data-name="Layer 2" xmlns="http://www.w3.org/2000/svg" viewBox="0 0 577 705">
  <defs>
    <style>
      .cls-1 {
        fill: none;
        stroke: #231f20;
        stroke-miterlimit: 10;
      }
    </style>
  </defs>
  <g id="Layer_4" data-name="Layer 4">
    <g>
      <g>
        <rect x="128.5" y="384.5" width="64" height="128" rx="24" ry="24"/>
        <rect class="cls-1" x="128.5" y="384.5" width="64" height="128" rx="24" ry="24"/>
      </g>
      <g>
        <rect x="320.5" y="384.5" width="64" height="128" rx="24" ry="24"/>
        <rect class="cls-1" x="320.5" y="384.5" width="64" height="128" rx="24" ry="24"/>
      </g>
      <g>
        <rect x="192.5" y="512.5" width="64" height="64" rx="24" ry="24"/>
        <rect class="cls-1" x="192.5" y="512.5" width="64" height="64" rx="24" ry="24"/>
      </g>
      <g>
        <path d="M152.5,704.5c-13.23,0-24-10.77-24-24v-16c0-13.25-10.75-24-24-24h-16c-13.23,0-24-10.77-24-24v-16c0-13.25-10.75-24-24-24h-16c-13.23,0-24-10.77-24-24v-208c0-13.23,10.77-24,24-24h16c13.25,0,24-10.75,24-24V88.5c0-13.23,10.77-24,24-24h16c13.25,0,24-10.75,24-24v-16c0-13.23,10.77-24,24-24h80c13.23,0,24,10.77,24,24v16c0,13.25,10.75,24,24,24h16c13.25,0,24-10.75,24-24v-16c0-13.23,10.77-24,24-24h80c13.23,0,24,10.77,24,24v16c0,13.25,10.75,24,24,24h16c13.23,0,24,10.77,24,24v208c0,13.25,10.75,24,24,24h16c13.23,0,24,10.77,24,24v208c0,13.23-10.77,24-24,24h-16c-13.25,0-24,10.75-24,24v16c0,13.23-10.77,24-24,24h-16c-13.25,0-24,10.75-24,24v16c0,13.23-10.77,24-24,24H152.5ZM88.5,320.5c-13.25,0-24,10.75-24,24v208c0,13.25,10.75,24,24,24h16c13.23,0,24,10.77,24,24v16c0,13.25,10.75,24,24,24h272c13.25,0,24-10.75,24-24v-16c0-13.23,10.77-24,24-24h16c13.25,0,24-10.75,24-24v-208c0-13.25-10.75-24-24-24h-16c-13.23,0-24-10.77-24-24V88.5c0-13.25-10.75-24-24-24h-80c-13.25,0-24,10.75-24,24v208c0,13.23-10.77,24-24,24h-16c-13.23,0-24-10.77-24-24V88.5c0-13.25-10.75-24-24-24h-80c-13.25,0-24,10.75-24,24v208c0,13.23-10.77,24-24,24h-16Z"/>
        <path class="cls-1" d="M152.5,704.5c-13.23,0-24-10.77-24-24v-16c0-13.25-10.75-24-24-24h-16c-13.23,0-24-10.77-24-24v-16c0-13.25-10.75-24-24-24h-16c-13.23,0-24-10.77-24-24v-208c0-13.23,10.77-24,24-24h16c13.25,0,24-10.75,24-24V88.5c0-13.23,10.77-24,24-24h16c13.25,0,24-10.75,24-24v-16c0-13.23,10.77-24,24-24h80c13.23,0,24,10.77,24,24v16c0,13.25,10.75,24,24,24h16c13.25,0,24-10.75,24-24v-16c0-13.23,10.77-24,24-24h80c13.23,0,24,10.77,24,24v16c0,13.25,10.75,24,24,24h16c13.23,0,24,10.77,24,24v208c0,13.25,10.75,24,24,24h16c13.23,0,24,10.77,24,24v208c0,13.23-10.77,24-24,24h-16c-13.25,0-24,10.75-24,24v16c0,13.23-10.77,24-24,24h-16c-13.25,0-24,10.75-24,24v16c0,13.23-10.77,24-24,24H152.5ZM88.5,320.5c-13.25,0-24,10.75-24,24v208c0,13.25,10.75,24,24,24h16c13.23,0,24,10.77,24,24v16c0,13.25,10.75,24,24,24h272c13.25,0,24-10.75,24-24v-16c0-13.23,10.77-24,24-24h16c13.25,0,24-10.75,24-24v-208c0-13.25-10.75-24-24-24h-16c-13.23,0-24-10.77-24-24V88.5c0-13.25-10.75-24-24-24h-80c-13.25,0-24,10.75-24,24v208c0,13.23-10.77,24-24,24h-16c-13.23,0-24-10.77-24-24V88.5c0-13.25-10.75-24-24-24h-80c-13.25,0-24,10.75-24,24v208c0,13.23-10.77,24-24,24h-16Z"/>
      </g>
    </g>
  </g>
</svg>