<?xml version="1.0" encoding="UTF-8"?>
<svg id="Layer_2" data-name="Layer 2" xmlns="http://www.w3.org/2000/svg" viewBox="0 0 640 640">
  <g id="Layer_1-2" data-name="Layer 1">
    <g>
      <rect x="128" y="320" width="64" height="128" rx="24" ry="24"/>
      <rect x="320" y="320" width="64" height="128" rx="24" ry="24"/>
      <rect x="192" y="448" width="64" height="64" rx="24" ry="24"/>
      <path d="M152,640c-13.23,0-24-10.77-24-24v-16c0-13.25-10.75-24-24-24h-16c-13.23,0-24-10.77-24-24v-16c0-13.25-10.75-24-24-24h-16c-13.23,0-24-10.77-24-24V24C0,10.77,10.77,0,24,0h80c13.23,0,24,10.77,24,24v16c0,13.25,10.75,24,24,24h208c13.25,0,24-10.75,24-24v-16c0-13.23,10.77-24,24-24h144c13.23,0,24,10.77,24,24v144c0,13.25,10.75,24,24,24h16c13.23,0,24,10.77,24,24v272c0,13.23-10.77,24-24,24h-16c-13.25,0-24,10.75-24,24v16c0,13.23-10.77,24-24,24h-16c-13.25,0-24,10.75-24,24v16c0,13.23-10.77,24-24,24H152ZM88,64c-13.25,0-24,10.75-24,24v400c0,13.25,10.75,24,24,24h16c13.23,0,24,10.77,24,24v16c0,13.25,10.75,24,24,24h336c13.25,0,24-10.75,24-24v-16c0-13.23,10.77-24,24-24h16c13.25,0,24-10.75,24-24v-16c0-13.25-10.75-24-24-24h-80c-13.23,0-24-10.77-24-24v-16c0-13.23,10.77-24,24-24h80c13.25,0,24-10.75,24-24v-16c0-13.25-10.75-24-24-24h-80c-13.23,0-24-10.77-24-24v-16c0-13.23,10.77-24,24-24h80c13.25,0,24-10.75,24-24v-16c0-13.25-10.75-24-24-24h-16c-13.23,0-24-10.77-24-24v-80c0-13.25-10.75-24-24-24h-80c-13.25,0-24,10.75-24,24v16c0,13.23-10.77,24-24,24h-208c-13.23,0-24-10.77-24-24v-16c0-13.25-10.75-24-24-24h-16Z"/>
    </g>
  </g>
</svg>